<svg viewBox="0 0 54 34" xmlns="http://www.w3.org/2000/svg">
  <g transform="matrix(1.451231002808, 0, 0, 1.451231002808, -0.053854331374, -2.645e-9)" style="">
    <path d="M31.3987 7.36607C31.3987 7.36607 32.3362 8.37054 33.6458 8.37054C34.68 8.37054 35.4315 7.74554 35.4315 6.88988C35.4315 5.84077 34.4716 5.35714 33.3109 5.35714H32.6264L32.2172 4.43452L34.0327 2.28423C34.4196 1.82292 34.7469 1.53274 34.7469 1.53274C34.7469 1.53274 34.4568 1.54762 33.869 1.54762H30.9151V0L36.9642 0V1.13095L34.5386 3.93601C35.9077 4.12946 37.2469 5.10417 37.2469 6.82292C37.2469 8.51191 35.9672 10.0744 33.7574 10.0744C31.6517 10.0744 30.4836 8.75 30.4836 8.75L31.3987 7.36607Z" fill="#04AA6D"/>
    <path d="M19.5981 9.45695L27.5892 23.6831L31.5326 16.6519L23.988 3.22183H15.2082L11.5698 9.70249L7.93146 3.22183H0.0371094L11.5252 23.6831L11.5698 23.6087L11.6145 23.6831L19.5981 9.45695Z" fill="#04AA6D"/>
  </g>
</svg>