<?xml version="1.0" standalone="no"?>
<!DOCTYPE svg PUBLIC "-//W3C//DTD SVG 20010904//EN"
 "http://www.w3.org/TR/2001/REC-SVG-20010904/DTD/svg10.dtd">
<svg version="1.0" xmlns="http://www.w3.org/2000/svg"
 width="256.000000pt" height="256.000000pt" viewBox="0 0 256.000000 256.000000"
 preserveAspectRatio="xMidYMid meet">
<metadata>
Created by potrace 1.11, written by Peter Selinger 2001-2013
</metadata>
<g transform="translate(0.000000,256.000000) scale(0.100000,-0.100000)"
fill="#000000" stroke="none">
<path d="M1920 2474 c-25 -8 -135 -36 -245 -63 -139 -33 -194 -50 -180 -56 94
-35 146 -82 170 -156 32 -96 8 -202 -58 -263 -47 -42 -86 -55 -182 -63 -76 -6
-130 17 -202 86 -37 36 -140 158 -168 199 -8 11 -36 -16 -49 -48 -46 -116 -37
-215 54 -615 12 -49 25 -93 29 -98 4 -4 20 -3 37 2 66 22 385 94 390 88 7 -7
44 -150 40 -155 -7 -6 -277 -75 -350 -88 -66 -13 -75 -20 -66 -56 4 -18 17
-71 28 -118 12 -47 35 -143 52 -215 18 -71 33 -137 35 -145 2 -8 20 -80 40
-160 44 -172 40 -156 50 -205 13 -65 21 -76 51 -65 14 6 37 12 52 15 15 2 81
18 147 34 231 57 338 83 357 86 11 2 28 7 38 10 10 3 27 8 37 10 25 6 196 47
335 81 l118 29 0 32 c0 17 -9 69 -20 115 -25 101 -21 83 -60 248 -17 74 -35
149 -40 165 -5 17 -16 59 -24 95 -14 58 -72 298 -183 750 -19 80 -36 150 -37
155 -15 75 -73 301 -86 335 -19 52 -37 57 -110 34z"/>
<path d="M735 2185 c-71 -19 -143 -36 -160 -40 -114 -22 -500 -125 -498 -133
1 -5 4 -20 6 -33 3 -13 10 -44 17 -69 7 -25 13 -52 15 -60 8 -38 69 -293 112
-466 l48 -192 100 25 c111 27 106 26 155 37 49 12 48 11 40 58 -18 94 -20 125
-21 227 -1 275 98 484 309 654 41 33 37 33 -123 -8z"/>
<path d="M555 1084 c-55 -15 -175 -44 -216 -51 -25 -5 -26 -7 -18 -36 12 -42
169 -685 175 -717 4 -21 32 -126 51 -192 7 -24 25 -23 125 11 47 16 104 32
126 36 23 4 44 11 47 16 3 5 1 28 -6 51 -6 24 -13 50 -14 58 -2 8 -31 128 -65
265 -33 138 -77 315 -96 395 -43 177 -44 180 -52 179 -4 0 -29 -7 -57 -15z"/>
</g>
</svg>
